<?xml version="1.0" encoding="UTF-8"?>
<svg xmlns="http://www.w3.org/2000/svg" xmlns:xlink="http://www.w3.org/1999/xlink" width="854" height="480" viewBox="0 0 854 480">
<defs>
<g>
<g id="glyph-0-0">
<path d="M 0.414062 -1.386719 L 0.414062 -1.019531 L 1.4375 -1.019531 C 1.289062 -0.421875 0.90625 0.0234375 0.273438 0.328125 L 0.59375 0.609375 C 1.105469 0.34375 1.472656 -0.03125 1.691406 -0.496094 C 2.109375 -0.171875 2.445312 0.140625 2.707031 0.441406 L 2.992188 0.148438 C 2.671875 -0.175781 2.277344 -0.5 1.816406 -0.824219 C 1.828125 -0.886719 1.84375 -0.945312 1.859375 -1.019531 L 2.980469 -1.019531 L 2.980469 -1.386719 L 1.898438 -1.386719 C 1.898438 -1.4375 1.90625 -1.484375 1.90625 -1.535156 L 1.90625 -2.082031 L 1.496094 -2.082031 L 1.496094 -1.535156 C 1.496094 -1.492188 1.492188 -1.441406 1.484375 -1.386719 Z M 3.34375 -3.847656 L 3.34375 -0.585938 L 5.597656 -0.585938 L 5.597656 -3.847656 L 4.625 -3.847656 C 4.644531 -4.015625 4.65625 -4.191406 4.667969 -4.382812 L 5.804688 -4.382812 L 5.804688 -4.773438 L 3.085938 -4.773438 L 3.085938 -4.382812 L 4.234375 -4.382812 C 4.222656 -4.199219 4.210938 -4.019531 4.191406 -3.847656 Z M 5.179688 -0.976562 L 3.757812 -0.976562 L 3.757812 -1.582031 L 5.179688 -1.582031 Z M 3.757812 -1.949219 L 3.757812 -2.515625 L 5.179688 -2.515625 L 5.179688 -1.949219 Z M 3.757812 -2.882812 L 3.757812 -3.46875 L 5.179688 -3.46875 L 5.179688 -2.882812 Z M 4.003906 -0.5625 C 3.738281 -0.21875 3.414062 0.078125 3.035156 0.335938 L 3.28125 0.648438 C 3.679688 0.371094 4.015625 0.0546875 4.289062 -0.3125 Z M 4.90625 -0.5625 L 4.644531 -0.300781 C 5.046875 0.0195312 5.359375 0.324219 5.585938 0.605469 L 5.871094 0.324219 C 5.617188 0.03125 5.292969 -0.269531 4.90625 -0.5625 Z M 0.378906 -3.800781 L 0.378906 -3.433594 L 1.355469 -3.433594 C 1.0625 -3.023438 0.691406 -2.683594 0.25 -2.40625 L 0.5 -2.109375 C 0.90625 -2.390625 1.246094 -2.730469 1.535156 -3.132812 L 1.535156 -2.277344 L 1.9375 -2.277344 L 1.9375 -2.992188 C 2.253906 -2.835938 2.574219 -2.628906 2.882812 -2.375 L 3.09375 -2.699219 C 2.738281 -2.933594 2.351562 -3.140625 1.9375 -3.3125 L 1.9375 -3.433594 L 2.957031 -3.433594 L 2.957031 -3.800781 L 1.9375 -3.800781 L 1.9375 -4.960938 L 1.535156 -4.960938 L 1.535156 -3.800781 Z M 2.585938 -4.859375 C 2.476562 -4.601562 2.347656 -4.375 2.199219 -4.191406 L 2.488281 -3.988281 C 2.644531 -4.191406 2.78125 -4.429688 2.894531 -4.699219 Z M 0.863281 -4.789062 L 0.519531 -4.675781 C 0.660156 -4.472656 0.792969 -4.234375 0.917969 -3.960938 L 1.234375 -4.105469 C 1.125 -4.351562 1.003906 -4.578125 0.863281 -4.789062 Z M 2.40625 -2.179688 L 2.125 -2.003906 C 2.320312 -1.796875 2.480469 -1.601562 2.589844 -1.429688 L 2.871094 -1.625 C 2.761719 -1.785156 2.609375 -1.96875 2.40625 -2.179688 Z "/>
</g>
<g id="glyph-0-1">
<path d="M 0.636719 -4.746094 L 0.636719 -2.78125 L 1.171875 -2.78125 C 1.148438 -1.925781 1.074219 -1.300781 0.953125 -0.90625 C 0.820312 -0.476562 0.585938 -0.105469 0.269531 0.207031 L 0.550781 0.566406 C 0.921875 0.207031 1.183594 -0.21875 1.34375 -0.714844 C 1.417969 -0.960938 1.480469 -1.269531 1.527344 -1.660156 L 2.8125 -1.660156 C 2.796875 -0.886719 2.78125 -0.421875 2.742188 -0.261719 C 2.683594 0.0078125 2.476562 0.140625 2.109375 0.140625 C 1.949219 0.140625 1.765625 0.132812 1.558594 0.121094 L 1.65625 0.5 C 1.894531 0.511719 2.066406 0.527344 2.164062 0.527344 C 2.753906 0.527344 3.085938 0.316406 3.152344 -0.0976562 C 3.214844 -0.355469 3.246094 -1.015625 3.246094 -2.078125 L 1.5625 -2.078125 C 1.578125 -2.292969 1.589844 -2.523438 1.601562 -2.78125 L 3.085938 -2.78125 L 3.085938 -4.746094 Z M 2.65625 -3.195312 L 1.0625 -3.195312 L 1.0625 -4.332031 L 2.65625 -4.332031 Z M 3.886719 -4.453125 L 3.886719 -0.648438 L 4.3125 -0.648438 L 4.3125 -4.453125 Z M 5.054688 0.554688 C 5.417969 0.554688 5.609375 0.347656 5.609375 -0.0546875 L 5.609375 -4.972656 L 5.175781 -4.972656 L 5.175781 -0.164062 C 5.175781 0.0546875 5.082031 0.164062 4.902344 0.164062 C 4.644531 0.164062 4.367188 0.152344 4.074219 0.132812 L 4.171875 0.554688 Z "/>
</g>
<g id="glyph-0-2">
<path d="M 2.167969 0.230469 L 4.902344 0.230469 L 4.902344 0.59375 L 5.347656 0.59375 L 5.347656 -1.984375 L 2.796875 -1.984375 C 3.949219 -2.515625 4.734375 -3.203125 5.175781 -4.039062 L 5.175781 -4.429688 L 2.792969 -4.429688 C 2.914062 -4.59375 3.023438 -4.765625 3.121094 -4.949219 L 2.640625 -5.003906 C 2.273438 -4.355469 1.570312 -3.808594 0.527344 -3.359375 L 0.820312 -2.980469 C 1.464844 -3.289062 1.992188 -3.628906 2.40625 -4.015625 L 4.667969 -4.015625 C 4.382812 -3.511719 3.929688 -3.078125 3.304688 -2.707031 C 3.042969 -2.933594 2.675781 -3.191406 2.210938 -3.476562 L 1.832031 -3.238281 C 2.296875 -2.976562 2.664062 -2.730469 2.933594 -2.503906 C 2.230469 -2.152344 1.351562 -1.871094 0.292969 -1.648438 L 0.527344 -1.226562 C 0.953125 -1.332031 1.351562 -1.441406 1.730469 -1.5625 L 1.730469 0.59375 L 2.167969 0.59375 Z M 4.902344 -0.195312 L 2.167969 -0.195312 L 2.167969 -1.578125 L 4.902344 -1.578125 Z "/>
</g>
<g id="glyph-0-3">
<path d="M 5.003906 0.542969 C 5.335938 0.542969 5.503906 0.359375 5.503906 -0.0078125 L 5.503906 -0.597656 L 5.761719 -0.597656 L 5.761719 -0.984375 L 5.503906 -0.984375 L 5.503906 -2.859375 L 4.253906 -2.859375 L 4.253906 -3.230469 L 3.847656 -3.230469 L 3.847656 -2.859375 L 2.621094 -2.859375 L 2.621094 -0.984375 L 2.179688 -0.984375 L 2.179688 -0.597656 L 2.621094 -0.597656 L 2.621094 0.5 L 3.035156 0.5 L 3.035156 -0.597656 L 5.082031 -0.597656 L 5.082031 -0.0976562 C 5.082031 0.0742188 5.011719 0.160156 4.871094 0.160156 L 4.441406 0.140625 L 4.550781 0.542969 Z M 3.035156 -0.984375 L 3.035156 -1.558594 L 3.847656 -1.558594 L 3.847656 -0.984375 Z M 4.253906 -0.984375 L 4.253906 -1.558594 L 5.082031 -1.558594 L 5.082031 -0.984375 Z M 3.035156 -1.925781 L 3.035156 -2.492188 L 3.847656 -2.492188 L 3.847656 -1.925781 Z M 4.253906 -2.492188 L 5.082031 -2.492188 L 5.082031 -1.925781 L 4.253906 -1.925781 Z M 5.242188 -4.257812 C 5.089844 -3.84375 4.90625 -3.5 4.699219 -3.230469 L 5.082031 -3.097656 C 5.296875 -3.402344 5.476562 -3.757812 5.621094 -4.160156 Z M 2.914062 -4.058594 L 2.542969 -3.933594 C 2.675781 -3.691406 2.785156 -3.433594 2.871094 -3.164062 L 3.273438 -3.269531 C 3.171875 -3.570312 3.050781 -3.832031 2.914062 -4.058594 Z M 4.007812 -4.15625 L 3.628906 -4.03125 C 3.75 -3.8125 3.847656 -3.585938 3.933594 -3.355469 L 4.339844 -3.453125 C 4.242188 -3.714844 4.128906 -3.949219 4.007812 -4.15625 Z M 5.476562 -4.941406 C 4.679688 -4.761719 3.671875 -4.667969 2.457031 -4.667969 L 2.589844 -4.277344 C 3.875 -4.277344 4.902344 -4.382812 5.683594 -4.582031 Z M 0.421875 -4.125 C 0.691406 -4.160156 0.945312 -4.199219 1.199219 -4.246094 L 1.199219 -3.316406 L 0.347656 -3.316406 L 0.347656 -2.894531 L 1.148438 -2.894531 C 0.964844 -2.199219 0.652344 -1.582031 0.214844 -1.03125 L 0.402344 -0.550781 C 0.738281 -1.042969 1.003906 -1.59375 1.199219 -2.207031 L 1.199219 0.585938 L 1.621094 0.585938 L 1.621094 -2.21875 C 1.773438 -2.011719 1.949219 -1.734375 2.152344 -1.40625 L 2.390625 -1.773438 C 2.132812 -2.070312 1.875 -2.347656 1.621094 -2.589844 L 1.621094 -2.894531 L 2.351562 -2.894531 L 2.351562 -3.316406 L 1.621094 -3.316406 L 1.621094 -4.339844 C 1.863281 -4.398438 2.101562 -4.464844 2.320312 -4.539062 L 2.175781 -4.929688 C 1.644531 -4.742188 1.03125 -4.613281 0.335938 -4.539062 Z "/>
</g>
<g id="glyph-0-4">
<rect x="0" y="0" width="0" height="0" mask="url(#mask-0)"/>
</g>
<g id="glyph-0-5">
<path d="M 5.621094 -2.902344 L 2.414062 -2.902344 L 2.414062 0.628906 L 2.835938 0.628906 L 2.835938 0.304688 L 5.199219 0.304688 L 5.199219 0.628906 L 5.621094 0.628906 Z M 2.835938 -0.0976562 L 2.835938 -1.085938 L 3.820312 -1.085938 L 3.820312 -0.0976562 Z M 4.222656 -0.0976562 L 4.222656 -1.085938 L 5.199219 -1.085938 L 5.199219 -0.0976562 Z M 2.835938 -1.484375 L 2.835938 -2.5 L 3.820312 -2.5 L 3.820312 -1.484375 Z M 4.222656 -2.5 L 5.199219 -2.5 L 5.199219 -1.484375 L 4.222656 -1.484375 Z M 1.042969 0.542969 C 1.363281 0.542969 1.519531 0.378906 1.519531 0.0546875 L 1.519531 -1.773438 C 1.742188 -1.875 1.960938 -1.984375 2.167969 -2.109375 L 2.167969 -2.554688 C 1.957031 -2.433594 1.742188 -2.316406 1.519531 -2.207031 L 1.519531 -3.445312 L 2.046875 -3.445312 L 2.046875 -3.867188 L 1.519531 -3.867188 L 1.519531 -4.984375 L 1.082031 -4.984375 L 1.082031 -3.867188 L 0.335938 -3.867188 L 0.335938 -3.445312 L 1.082031 -3.445312 L 1.082031 -2.015625 C 0.8125 -1.917969 0.539062 -1.828125 0.257812 -1.753906 L 0.359375 -1.308594 C 0.605469 -1.386719 0.84375 -1.480469 1.082031 -1.578125 L 1.082031 -0.0546875 C 1.082031 0.078125 1.015625 0.152344 0.890625 0.152344 C 0.734375 0.152344 0.5625 0.140625 0.386719 0.121094 L 0.476562 0.542969 Z M 2.195312 -4.265625 L 2.195312 -3.867188 L 2.953125 -3.867188 L 2.953125 -3.238281 L 3.378906 -3.238281 L 3.378906 -3.867188 L 3.824219 -3.867188 L 3.824219 -4.265625 L 3.378906 -4.265625 L 3.378906 -4.972656 L 2.953125 -4.972656 L 2.953125 -4.265625 Z M 4.550781 -4.972656 L 4.550781 -4.265625 L 4.074219 -4.265625 L 4.074219 -3.867188 L 4.550781 -3.867188 L 4.550781 -3.238281 L 4.980469 -3.238281 L 4.980469 -3.867188 L 5.796875 -3.867188 L 5.796875 -4.265625 L 4.980469 -4.265625 L 4.980469 -4.972656 Z "/>
</g>
<g id="glyph-0-6">
<path d="M 3.648438 -4.957031 L 3.648438 -3.867188 L 2.152344 -3.867188 L 2.152344 -3.453125 L 3.648438 -3.453125 L 3.648438 -0.207031 L 4.082031 -0.207031 L 4.082031 -3.453125 L 5.671875 -3.453125 L 5.671875 -3.867188 L 4.082031 -3.867188 L 4.082031 -4.957031 Z M 2.640625 -3.023438 L 2.640625 -2.414062 C 2.632812 -1.660156 2.4375 -1.117188 2.058594 -0.78125 L 2.363281 -0.511719 C 2.804688 -0.910156 3.03125 -1.546875 3.042969 -2.414062 L 3.042969 -3.023438 Z M 4.71875 -3.019531 L 4.71875 -1.210938 C 4.71875 -0.878906 4.859375 -0.714844 5.140625 -0.714844 L 5.773438 -0.714844 L 5.773438 -1.09375 L 5.285156 -1.09375 C 5.167969 -1.09375 5.113281 -1.148438 5.113281 -1.257812 L 5.113281 -3.019531 Z M 0.34375 -3.464844 L 0.34375 -3.0625 L 1.324219 -3.0625 C 1.105469 -2.71875 0.835938 -2.371094 0.527344 -2.027344 L 0.527344 -1.691406 L 1.449219 -1.691406 C 1.355469 -1.296875 1.234375 -0.941406 1.082031 -0.625 C 0.835938 -0.550781 0.574219 -0.238281 0.304688 0.3125 L 0.628906 0.597656 C 0.878906 0.0546875 1.074219 -0.214844 1.210938 -0.214844 C 1.257812 -0.214844 1.308594 -0.195312 1.351562 -0.152344 C 1.546875 0.0625 1.761719 0.21875 1.992188 0.324219 C 2.195312 0.414062 2.492188 0.46875 2.882812 0.484375 C 3.214844 0.496094 3.59375 0.5 4.019531 0.5 L 5.757812 0.5 L 5.855469 0.078125 C 5.070312 0.0976562 4.441406 0.109375 3.960938 0.109375 L 2.902344 0.109375 C 2.574219 0.0976562 2.320312 0.0546875 2.136719 -0.0234375 C 1.957031 -0.117188 1.773438 -0.25 1.601562 -0.433594 C 1.558594 -0.476562 1.515625 -0.511719 1.472656 -0.539062 C 1.632812 -0.867188 1.765625 -1.277344 1.863281 -1.773438 L 1.863281 -2.066406 L 1.050781 -2.066406 C 1.339844 -2.40625 1.59375 -2.753906 1.816406 -3.117188 L 1.816406 -3.464844 Z M 0.855469 -4.9375 L 0.554688 -4.648438 C 0.941406 -4.34375 1.242188 -4.050781 1.460938 -3.78125 L 1.753906 -4.074219 C 1.507812 -4.363281 1.210938 -4.648438 0.855469 -4.9375 Z M 4.816406 -4.957031 L 4.492188 -4.761719 C 4.746094 -4.480469 4.949219 -4.222656 5.101562 -3.988281 L 5.414062 -4.214844 C 5.273438 -4.429688 5.070312 -4.675781 4.816406 -4.957031 Z "/>
</g>
<g id="glyph-0-7">
<path d="M 1.222656 -4.003906 L 1.660156 -4.003906 C 1.820312 -3.769531 1.957031 -3.527344 2.070312 -3.269531 L 2.480469 -3.421875 C 2.390625 -3.605469 2.273438 -3.792969 2.132812 -4.003906 L 2.988281 -4.003906 L 2.988281 -4.40625 L 1.417969 -4.40625 C 1.492188 -4.578125 1.5625 -4.753906 1.625 -4.941406 L 1.203125 -5.035156 C 1.007812 -4.4375 0.691406 -3.886719 0.261719 -3.386719 L 0.640625 -3.148438 C 0.863281 -3.402344 1.050781 -3.691406 1.222656 -4.003906 Z M 3.765625 -4.003906 L 4.308594 -4.003906 C 4.460938 -3.765625 4.59375 -3.519531 4.710938 -3.261719 L 5.113281 -3.414062 C 5.027344 -3.597656 4.914062 -3.792969 4.777344 -4.003906 L 5.714844 -4.003906 L 5.714844 -4.40625 L 3.929688 -4.40625 C 3.996094 -4.578125 4.058594 -4.761719 4.113281 -4.957031 L 3.683594 -5.046875 C 3.527344 -4.449219 3.261719 -3.898438 2.910156 -3.402344 L 3.28125 -3.164062 C 3.457031 -3.414062 3.617188 -3.695312 3.765625 -4.003906 Z M 1.539062 -3.355469 C 1.277344 -2.664062 0.863281 -2.054688 0.289062 -1.515625 L 0.421875 -1.058594 C 0.683594 -1.289062 0.921875 -1.546875 1.136719 -1.816406 L 1.136719 0.582031 L 1.570312 0.582031 L 1.570312 -2.449219 C 1.699219 -2.683594 1.816406 -2.921875 1.914062 -3.175781 Z M 2.046875 -2.445312 L 2.046875 -2.015625 L 4.546875 -2.015625 L 4.546875 -0.128906 C 4.546875 0.0664062 4.449219 0.171875 4.253906 0.171875 C 3.984375 0.171875 3.695312 0.160156 3.398438 0.140625 L 3.496094 0.5625 L 4.410156 0.5625 C 4.789062 0.5625 4.980469 0.367188 4.980469 -0.0195312 L 4.980469 -2.015625 L 5.761719 -2.015625 L 5.761719 -2.445312 L 4.980469 -2.445312 L 4.980469 -3.085938 L 4.546875 -3.085938 L 4.546875 -2.445312 Z M 2.824219 -1.667969 L 2.480469 -1.460938 C 2.859375 -1.03125 3.164062 -0.648438 3.386719 -0.292969 L 3.726562 -0.53125 C 3.519531 -0.855469 3.214844 -1.234375 2.824219 -1.667969 Z "/>
</g>
<g id="glyph-0-8">
<path d="M 3.289062 -3.238281 L 4.992188 -3.238281 L 4.992188 -2.554688 L 3.289062 -2.554688 Z M 4.992188 -3.628906 L 3.289062 -3.628906 L 3.289062 -4.339844 L 4.992188 -4.339844 Z M 5.476562 -1.839844 C 5.21875 -1.515625 4.957031 -1.277344 4.679688 -1.117188 C 4.550781 -1.332031 4.441406 -1.570312 4.34375 -1.832031 L 4.003906 -1.644531 C 4.34375 -0.667969 4.886719 0.0625 5.640625 0.527344 L 5.898438 0.148438 C 5.5 -0.0859375 5.164062 -0.402344 4.882812 -0.800781 C 5.207031 -0.976562 5.5 -1.234375 5.757812 -1.5625 Z M 3.289062 -2.15625 L 5.417969 -2.15625 L 5.417969 -4.734375 L 2.859375 -4.734375 L 2.859375 -0.0898438 C 2.859375 -0.0078125 2.8125 0.0625 2.714844 0.0976562 L 2.8125 0.46875 C 3.457031 0.300781 3.996094 0.117188 4.425781 -0.0664062 L 4.324219 -0.46875 C 3.984375 -0.304688 3.636719 -0.171875 3.289062 -0.0742188 Z M 0.519531 -4.730469 L 0.519531 -2.835938 L 1.417969 -2.835938 L 1.417969 -0.226562 C 1.257812 -0.1875 1.101562 -0.148438 0.933594 -0.109375 L 0.933594 -2.222656 L 0.539062 -2.222656 L 0.539062 -0.0195312 C 0.441406 -0.0078125 0.347656 0.0117188 0.257812 0.0351562 L 0.378906 0.464844 C 1.203125 0.273438 1.925781 0.0742188 2.535156 -0.132812 L 2.535156 -0.5625 C 2.308594 -0.488281 2.070312 -0.414062 1.828125 -0.34375 L 1.828125 -1.464844 L 2.476562 -1.464844 L 2.476562 -1.875 L 1.828125 -1.875 L 1.828125 -2.835938 L 2.394531 -2.835938 L 2.394531 -4.730469 Z M 1.980469 -3.238281 L 0.941406 -3.238281 L 0.941406 -4.324219 L 1.980469 -4.324219 Z "/>
</g>
<g id="glyph-0-9">
<path d="M 1.984375 -3.949219 L 1.984375 -3.511719 L 3.628906 -3.511719 L 3.628906 -2.054688 L 2.175781 -2.054688 L 2.175781 -1.632812 L 3.628906 -1.632812 L 3.628906 -0.0234375 L 1.886719 -0.0234375 L 1.886719 0.410156 L 5.824219 0.410156 L 5.824219 -0.0234375 L 4.082031 -0.0234375 L 4.082031 -1.632812 L 5.523438 -1.632812 L 5.523438 -2.054688 L 4.082031 -2.054688 L 4.082031 -3.511719 L 5.695312 -3.511719 L 5.695312 -3.949219 L 3.878906 -3.949219 L 4.085938 -4.027344 C 4.007812 -4.320312 3.898438 -4.636719 3.75 -4.992188 L 3.3125 -4.875 C 3.453125 -4.578125 3.574219 -4.265625 3.679688 -3.949219 Z M 1.625 -5.023438 C 1.332031 -4.082031 0.863281 -3.246094 0.214844 -2.515625 L 0.355469 -2.054688 C 0.585938 -2.292969 0.800781 -2.542969 0.996094 -2.8125 L 0.996094 0.625 L 1.429688 0.625 L 1.429688 -3.46875 C 1.675781 -3.898438 1.875 -4.351562 2.035156 -4.832031 Z "/>
</g>
<g id="glyph-0-10">
<path d="M 0.769531 -4.507812 L 0.769531 -4.105469 L 2.828125 -4.105469 L 2.828125 -3.574219 L 0.519531 -3.574219 L 0.519531 -2.460938 L 0.945312 -2.460938 L 0.945312 -3.191406 L 2.769531 -3.191406 C 2.414062 -2.882812 2.035156 -2.613281 1.636719 -2.390625 C 1.546875 -2.339844 1.453125 -2.304688 1.363281 -2.285156 L 1.449219 -1.949219 C 1.980469 -1.960938 2.449219 -1.980469 2.867188 -1.992188 C 2.328125 -1.6875 1.816406 -1.464844 1.3125 -1.324219 C 1.191406 -1.324219 1.0625 -1.332031 0.933594 -1.339844 L 1.019531 -0.941406 C 1.582031 -0.953125 2.199219 -0.976562 2.871094 -1.007812 L 2.871094 0.0351562 C 2.871094 0.160156 2.796875 0.226562 2.664062 0.226562 C 2.503906 0.226562 2.335938 0.214844 2.164062 0.195312 L 2.253906 0.605469 L 2.8125 0.605469 C 3.140625 0.605469 3.3125 0.445312 3.3125 0.140625 L 3.3125 -1.027344 C 3.75 -1.050781 4.214844 -1.082031 4.710938 -1.113281 C 4.832031 -0.964844 4.941406 -0.820312 5.042969 -0.671875 L 5.371094 -0.910156 C 5.132812 -1.242188 4.789062 -1.621094 4.34375 -2.054688 L 4.027344 -1.851562 C 4.171875 -1.703125 4.3125 -1.5625 4.449219 -1.417969 C 3.652344 -1.363281 2.867188 -1.320312 2.070312 -1.296875 C 2.902344 -1.589844 3.671875 -2 4.394531 -2.535156 L 4.039062 -2.773438 C 3.820312 -2.613281 3.597656 -2.460938 3.386719 -2.316406 C 3.042969 -2.292969 2.585938 -2.277344 2.023438 -2.265625 C 2.417969 -2.480469 2.796875 -2.730469 3.164062 -3.023438 L 2.828125 -3.191406 L 5.164062 -3.191406 L 5.164062 -2.457031 L 5.589844 -2.457031 L 5.589844 -3.574219 L 3.28125 -3.574219 L 3.28125 -4.105469 L 5.339844 -4.105469 L 5.339844 -4.507812 L 3.28125 -4.507812 L 3.28125 -4.992188 L 2.828125 -4.992188 L 2.828125 -4.507812 Z M 3.960938 -0.703125 L 3.738281 -0.378906 C 4.324219 -0.164062 4.902344 0.128906 5.460938 0.496094 L 5.6875 0.140625 C 5.167969 -0.1875 4.59375 -0.46875 3.960938 -0.703125 Z M 2.035156 -0.714844 C 1.601562 -0.386719 1.050781 -0.117188 0.386719 0.0859375 L 0.566406 0.476562 C 1.257812 0.238281 1.832031 -0.0625 2.292969 -0.425781 Z "/>
</g>
<g id="glyph-0-11">
<path d="M 4.722656 -4.992188 L 4.722656 0.617188 L 5.164062 0.617188 L 5.164062 -4.992188 Z M 1.128906 -2.980469 L 3.230469 -2.980469 L 3.230469 -4.746094 L 0.574219 -4.746094 L 0.574219 -4.34375 L 2.796875 -4.34375 L 2.796875 -3.390625 L 0.765625 -3.390625 L 0.445312 -1.570312 L 2.855469 -1.570312 C 2.855469 -0.855469 2.816406 -0.386719 2.75 -0.160156 C 2.675781 0.0546875 2.402344 0.164062 1.9375 0.164062 C 1.742188 0.164062 1.546875 0.152344 1.351562 0.140625 L 1.460938 0.550781 C 1.65625 0.5625 1.84375 0.574219 2.035156 0.574219 C 2.699219 0.550781 3.078125 0.367188 3.164062 0.0234375 C 3.25 -0.292969 3.292969 -0.960938 3.292969 -1.96875 L 0.917969 -1.96875 Z "/>
</g>
<g id="glyph-0-12">
<path d="M 0.304688 -2.460938 L 0.304688 -2.023438 L 5.796875 -2.023438 L 5.796875 -2.460938 Z "/>
</g>
<g id="glyph-0-13">
<path d="M 0.554688 -4.746094 L 0.554688 -2.828125 L 1.417969 -2.828125 L 1.417969 -0.171875 C 1.269531 -0.132812 1.117188 -0.0898438 0.964844 -0.0546875 L 0.964844 -2.175781 L 0.574219 -2.175781 L 0.574219 0.0429688 L 0.25 0.117188 L 0.371094 0.542969 C 1.222656 0.34375 1.96875 0.121094 2.601562 -0.117188 L 2.601562 -0.554688 C 2.359375 -0.464844 2.097656 -0.378906 1.828125 -0.292969 L 1.828125 -1.429688 L 2.460938 -1.429688 L 2.460938 -1.84375 L 1.828125 -1.84375 L 1.828125 -2.828125 L 2.4375 -2.828125 L 2.4375 -4.746094 Z M 2.015625 -3.230469 L 0.984375 -3.230469 L 0.984375 -4.34375 L 2.015625 -4.34375 Z M 5.351562 -1.675781 L 2.96875 -1.675781 L 2.96875 0.59375 L 3.390625 0.59375 L 3.390625 0.324219 L 4.929688 0.324219 L 4.929688 0.59375 L 5.351562 0.59375 Z M 3.390625 -0.078125 L 3.390625 -1.277344 L 4.929688 -1.277344 L 4.929688 -0.078125 Z M 3.59375 -5.003906 C 3.398438 -4.382812 3.03125 -3.863281 2.492188 -3.441406 L 2.753906 -3.09375 C 2.953125 -3.25 3.128906 -3.414062 3.289062 -3.597656 C 3.441406 -3.316406 3.625 -3.0625 3.84375 -2.824219 C 3.441406 -2.503906 2.964844 -2.238281 2.402344 -2.011719 L 2.664062 -1.65625 C 3.238281 -1.898438 3.726562 -2.1875 4.144531 -2.523438 C 4.550781 -2.15625 5.058594 -1.875 5.664062 -1.679688 L 5.914062 -2.039062 C 5.347656 -2.21875 4.859375 -2.476562 4.453125 -2.804688 C 4.851562 -3.195312 5.15625 -3.648438 5.363281 -4.160156 L 5.363281 -4.480469 L 3.847656 -4.480469 C 3.910156 -4.625 3.964844 -4.773438 4.015625 -4.925781 Z M 3.539062 -3.933594 C 3.574219 -3.984375 3.605469 -4.039062 3.640625 -4.085938 L 4.902344 -4.085938 C 4.710938 -3.722656 4.460938 -3.390625 4.148438 -3.085938 C 3.90625 -3.332031 3.703125 -3.617188 3.539062 -3.933594 Z "/>
</g>
<g id="glyph-0-14">
<path d="M 3.574219 -5.003906 C 3.539062 -4.761719 3.484375 -4.523438 3.402344 -4.289062 L 2.476562 -4.289062 L 2.476562 -0.433594 L 5.425781 -0.433594 L 5.425781 -2.078125 L 2.894531 -2.078125 L 2.894531 -2.707031 L 5.222656 -2.707031 L 5.222656 -4.289062 L 3.832031 -4.289062 C 3.917969 -4.492188 3.976562 -4.710938 4.027344 -4.941406 Z M 2.894531 -1.703125 L 5 -1.703125 L 5 -0.84375 L 2.894531 -0.84375 Z M 2.894531 -3.066406 L 2.894531 -3.886719 L 4.796875 -3.886719 L 4.796875 -3.066406 Z M 0.820312 -4.9375 L 0.53125 -4.65625 C 0.921875 -4.34375 1.234375 -4.050781 1.464844 -3.769531 L 1.753906 -4.058594 C 1.496094 -4.351562 1.183594 -4.644531 0.820312 -4.9375 Z M 0.34375 -3.464844 L 0.34375 -3.0625 L 1.269531 -3.0625 C 1.0625 -2.71875 0.800781 -2.375 0.496094 -2.027344 L 0.496094 -1.691406 L 1.421875 -1.691406 C 1.332031 -1.296875 1.210938 -0.941406 1.0625 -0.628906 C 0.804688 -0.5625 0.542969 -0.25 0.261719 0.3125 L 0.585938 0.597656 C 0.84375 0.0546875 1.042969 -0.214844 1.191406 -0.214844 C 1.242188 -0.214844 1.28125 -0.195312 1.332031 -0.152344 C 1.539062 0.0625 1.773438 0.21875 2.015625 0.316406 C 2.238281 0.410156 2.554688 0.457031 2.96875 0.46875 C 3.324219 0.484375 3.734375 0.488281 4.1875 0.488281 L 5.757812 0.488281 L 5.855469 0.0664062 C 5.144531 0.0898438 4.570312 0.105469 4.128906 0.105469 C 3.703125 0.105469 3.324219 0.0976562 2.992188 0.0976562 C 2.652344 0.0859375 2.375 0.0429688 2.179688 -0.03125 C 1.984375 -0.121094 1.789062 -0.257812 1.601562 -0.441406 C 1.550781 -0.488281 1.503906 -0.527344 1.453125 -0.550781 C 1.605469 -0.875 1.734375 -1.28125 1.832031 -1.773438 L 1.832031 -2.066406 L 1.015625 -2.066406 C 1.296875 -2.40625 1.539062 -2.753906 1.753906 -3.117188 L 1.753906 -3.464844 Z "/>
</g>
<g id="glyph-0-15">
<path d="M 4.710938 -2.867188 L 3.28125 -2.867188 L 3.28125 -5 L 2.828125 -5 L 2.828125 -2.867188 L 1.398438 -2.867188 L 1.398438 -4.535156 L 0.960938 -4.535156 L 0.960938 -2.4375 L 2.828125 -2.4375 L 2.828125 -0.195312 L 1.105469 -0.195312 L 1.105469 -1.863281 L 0.660156 -1.863281 L 0.660156 0.566406 L 1.105469 0.566406 L 1.105469 0.226562 L 5.003906 0.226562 L 5.003906 0.566406 L 5.449219 0.566406 L 5.449219 -1.863281 L 5.003906 -1.863281 L 5.003906 -0.195312 L 3.28125 -0.195312 L 3.28125 -2.4375 L 5.152344 -2.4375 L 5.152344 -4.535156 L 4.710938 -4.535156 Z "/>
</g>
<g id="glyph-0-16">
<path d="M 1.789062 -4.464844 L 0.476562 -4.464844 L 0.476562 -0.183594 L 0.875 -0.183594 L 0.875 -0.640625 L 1.789062 -0.640625 Z M 0.875 -1.019531 L 0.875 -4.085938 L 1.398438 -4.085938 L 1.398438 -1.019531 Z M 2.070312 -4.019531 L 2.070312 -3.695312 L 2.542969 -3.695312 C 2.40625 -3.359375 2.15625 -3.0625 1.796875 -2.792969 L 1.984375 -2.480469 C 2.339844 -2.792969 2.597656 -3.152344 2.75 -3.570312 L 2.75 -2.414062 L 3.097656 -2.414062 L 3.097656 -3.171875 C 3.230469 -3.078125 3.390625 -2.964844 3.582031 -2.816406 L 3.75 -3.078125 C 3.53125 -3.21875 3.3125 -3.347656 3.097656 -3.464844 L 3.097656 -3.695312 L 3.640625 -3.695312 L 3.640625 -4.019531 L 3.097656 -4.019531 L 3.097656 -4.460938 C 3.3125 -4.503906 3.507812 -4.5625 3.679688 -4.636719 L 3.511719 -4.917969 C 3.121094 -4.761719 2.632812 -4.679688 2.035156 -4.679688 L 2.136719 -4.375 C 2.347656 -4.375 2.554688 -4.386719 2.75 -4.40625 L 2.75 -4.019531 Z M 4.199219 -4.9375 C 4.0625 -4.386719 3.847656 -3.886719 3.550781 -3.433594 L 3.824219 -3.261719 C 3.984375 -3.507812 4.128906 -3.777344 4.265625 -4.074219 L 4.621094 -4.074219 C 4.546875 -3.652344 4.339844 -3.269531 4.007812 -2.914062 L 4.265625 -2.6875 C 4.644531 -3.09375 4.863281 -3.554688 4.925781 -4.074219 L 5.296875 -4.074219 C 5.285156 -3.550781 5.261719 -3.207031 5.222656 -3.0625 C 5.175781 -2.914062 5.070312 -2.839844 4.90625 -2.828125 L 4.632812 -2.828125 L 4.71875 -2.523438 L 5 -2.523438 C 5.238281 -2.535156 5.40625 -2.632812 5.503906 -2.816406 C 5.601562 -3.007812 5.652344 -3.542969 5.652344 -4.429688 L 4.398438 -4.429688 C 4.449219 -4.570312 4.492188 -4.71875 4.535156 -4.871094 Z M 4.902344 -1.519531 C 4.730469 -1.3125 4.527344 -1.125 4.300781 -0.964844 L 4.59375 -0.757812 C 4.828125 -0.929688 5.035156 -1.125 5.21875 -1.355469 C 5.351562 -1.289062 5.492188 -1.222656 5.652344 -1.160156 L 5.882812 -1.496094 C 5.070312 -1.816406 4.460938 -2.210938 4.050781 -2.6875 L 3.726562 -2.6875 C 3.261719 -2.207031 2.671875 -1.808594 1.949219 -1.496094 L 2.179688 -1.160156 C 2.304688 -1.214844 2.425781 -1.277344 2.554688 -1.34375 C 2.785156 -1.136719 2.976562 -0.945312 3.117188 -0.769531 L 3.410156 -0.972656 C 3.28125 -1.128906 3.105469 -1.3125 2.871094 -1.519531 C 3.238281 -1.746094 3.574219 -2.015625 3.878906 -2.320312 C 4.160156 -2.023438 4.496094 -1.753906 4.902344 -1.519531 Z M 4.460938 -0.585938 L 4.269531 -0.3125 C 4.71875 -0.152344 5.152344 0.0742188 5.578125 0.355469 L 5.796875 0.0234375 C 5.394531 -0.21875 4.949219 -0.421875 4.460938 -0.585938 Z M 3.605469 0.585938 C 3.917969 0.585938 4.074219 0.433594 4.074219 0.132812 L 4.074219 -1.761719 L 3.683594 -1.761719 L 3.683594 0.0351562 C 3.683594 0.164062 3.609375 0.230469 3.46875 0.230469 C 3.332031 0.230469 3.183594 0.21875 3.035156 0.207031 L 3.121094 0.585938 Z M 3.304688 -0.605469 C 2.933594 -0.402344 2.488281 -0.230469 1.96875 -0.0898438 L 2.125 0.273438 C 2.632812 0.109375 3.0625 -0.0742188 3.402344 -0.28125 Z "/>
</g>
<g id="glyph-0-17">
<path d="M 5.195312 -5.054688 C 4.925781 -4.664062 4.71875 -4.242188 4.5625 -3.792969 C 4.382812 -3.269531 4.296875 -2.738281 4.296875 -2.195312 C 4.296875 -1.660156 4.382812 -1.128906 4.5625 -0.605469 C 4.71875 -0.164062 4.925781 0.257812 5.195312 0.652344 L 5.621094 0.652344 C 5.378906 0.246094 5.179688 -0.175781 5.042969 -0.609375 C 4.859375 -1.148438 4.773438 -1.679688 4.773438 -2.199219 C 4.773438 -2.726562 4.859375 -3.25 5.042969 -3.789062 C 5.179688 -4.226562 5.378906 -4.648438 5.621094 -5.054688 Z "/>
</g>
<g id="glyph-0-18">
<path d="M 1.761719 -4.578125 L 0.386719 -4.578125 L 0.386719 -0.0742188 L 0.789062 -0.0742188 L 0.789062 -0.574219 L 1.363281 -0.574219 L 1.363281 -0.21875 L 1.761719 -0.21875 Z M 0.789062 -0.964844 L 0.789062 -4.191406 L 1.363281 -4.191406 L 1.363281 -0.964844 Z M 2.523438 -3.128906 L 3.164062 -3.128906 L 3.164062 -2.265625 L 2.523438 -2.265625 Z M 3.164062 -3.496094 L 2.523438 -3.496094 L 2.523438 -4.367188 L 3.164062 -4.367188 Z M 5.40625 0.539062 C 5.589844 0.527344 5.714844 0.457031 5.761719 0.347656 C 5.824219 0.226562 5.855469 -0.0976562 5.855469 -0.617188 L 5.554688 -0.734375 C 5.554688 -0.414062 5.542969 -0.183594 5.53125 -0.0351562 C 5.519531 0.0859375 5.46875 0.152344 5.394531 0.160156 L 5.164062 0.160156 C 5.097656 0.148438 5.066406 0.105469 5.066406 0.03125 L 5.066406 -1.515625 L 4.839844 -1.515625 C 4.902344 -1.71875 4.949219 -1.925781 4.992188 -2.144531 L 5.683594 -2.144531 L 5.683594 -2.546875 L 5.058594 -2.546875 C 5.109375 -2.925781 5.140625 -3.335938 5.144531 -3.777344 L 5.144531 -4.332031 L 5.707031 -4.332031 L 5.707031 -4.734375 L 3.867188 -4.734375 L 3.867188 -4.332031 L 4.785156 -4.332031 L 4.785156 -3.777344 C 4.777344 -3.347656 4.746094 -2.9375 4.691406 -2.546875 L 4.203125 -2.546875 C 4.269531 -2.957031 4.339844 -3.433594 4.398438 -3.976562 L 4.03125 -4.015625 C 3.984375 -3.46875 3.90625 -2.847656 3.800781 -2.144531 L 4.621094 -2.144531 C 4.386719 -1.070312 3.917969 -0.238281 3.207031 0.355469 L 3.511719 0.625 C 4.027344 0.171875 4.425781 -0.402344 4.699219 -1.113281 L 4.699219 0.0976562 C 4.699219 0.390625 4.851562 0.539062 5.15625 0.539062 Z M 3.316406 -1.632812 L 3.023438 -1.453125 C 3.121094 -1.269531 3.207031 -1.085938 3.292969 -0.910156 C 3.035156 -0.703125 2.78125 -0.519531 2.523438 -0.371094 L 2.523438 -1.886719 L 3.53125 -1.886719 L 3.53125 -4.753906 L 2.136719 -4.753906 L 2.136719 -0.347656 C 2.136719 -0.261719 2.109375 -0.203125 2.046875 -0.164062 L 2.164062 0.25 C 2.664062 -0.0117188 3.085938 -0.289062 3.441406 -0.574219 C 3.488281 -0.453125 3.539062 -0.335938 3.582031 -0.21875 L 3.890625 -0.441406 C 3.757812 -0.78125 3.570312 -1.179688 3.316406 -1.632812 Z "/>
</g>
<g id="glyph-0-19">
<path d="M 0.488281 -5.054688 C 0.734375 -4.648438 0.921875 -4.226562 1.070312 -3.789062 C 1.246094 -3.25 1.339844 -2.726562 1.339844 -2.199219 C 1.339844 -1.679688 1.246094 -1.148438 1.070312 -0.609375 C 0.921875 -0.175781 0.734375 0.246094 0.488281 0.652344 L 0.917969 0.652344 C 1.179688 0.257812 1.386719 -0.164062 1.546875 -0.605469 C 1.722656 -1.128906 1.816406 -1.660156 1.816406 -2.195312 C 1.816406 -2.738281 1.722656 -3.269531 1.546875 -3.792969 C 1.386719 -4.242188 1.179688 -4.664062 0.917969 -5.054688 Z "/>
</g>
<g id="glyph-1-0">
<rect x="0" y="0" width="0" height="0" mask="url(#mask-1)"/>
</g>
<g id="glyph-1-1">
<path d="M 0.996094 0.0703125 C 0.902344 0.0703125 0.820312 0.0390625 0.753906 -0.0273438 C 0.6875 -0.09375 0.65625 -0.175781 0.65625 -0.269531 C 0.65625 -0.363281 0.691406 -0.441406 0.757812 -0.507812 C 0.824219 -0.574219 0.902344 -0.605469 0.996094 -0.605469 C 1.089844 -0.605469 1.167969 -0.574219 1.234375 -0.507812 C 1.300781 -0.441406 1.332031 -0.363281 1.332031 -0.269531 C 1.332031 -0.175781 1.300781 -0.09375 1.238281 -0.0273438 C 1.171875 0.0390625 1.09375 0.0703125 0.996094 0.0703125 Z "/>
</g>
<g id="glyph-1-2">
<path d="M 5.375 -1.523438 L 5.375 -1.230469 L 0.71875 -1.230469 L 0.71875 -1.523438 Z "/>
</g>
<g id="glyph-1-3">
<path d="M 1.519531 -2.8125 C 1.765625 -2.8125 1.980469 -2.75 2.160156 -2.621094 C 2.339844 -2.492188 2.429688 -2.351562 2.429688 -2.199219 C 2.429688 -2.132812 2.410156 -2.070312 2.363281 -2.015625 C 2.316406 -1.957031 2.246094 -1.929688 2.152344 -1.929688 C 2.082031 -1.929688 2.019531 -1.953125 1.96875 -2.003906 C 1.914062 -2.050781 1.875 -2.121094 1.851562 -2.210938 L 1.816406 -2.355469 C 1.789062 -2.460938 1.746094 -2.535156 1.683594 -2.578125 C 1.617188 -2.621094 1.53125 -2.640625 1.421875 -2.640625 C 1.195312 -2.640625 1.003906 -2.542969 0.847656 -2.34375 C 0.691406 -2.144531 0.613281 -1.882812 0.613281 -1.554688 C 0.613281 -1.253906 0.699219 -0.984375 0.871094 -0.746094 C 1.042969 -0.507812 1.277344 -0.386719 1.570312 -0.386719 C 1.777344 -0.386719 1.960938 -0.457031 2.121094 -0.589844 C 2.210938 -0.667969 2.316406 -0.792969 2.429688 -0.960938 L 2.515625 -0.910156 C 2.402344 -0.671875 2.28125 -0.480469 2.15625 -0.34375 C 1.917969 -0.078125 1.636719 0.0585938 1.320312 0.0585938 C 1.011719 0.0585938 0.738281 -0.0664062 0.5 -0.308594 C 0.261719 -0.554688 0.140625 -0.886719 0.140625 -1.308594 C 0.140625 -1.71875 0.269531 -2.074219 0.53125 -2.367188 C 0.792969 -2.664062 1.121094 -2.8125 1.519531 -2.8125 Z "/>
</g>
<g id="glyph-1-4">
<path d="M 0.125 -0.0820312 C 0.308594 -0.101562 0.4375 -0.140625 0.5 -0.195312 C 0.566406 -0.253906 0.601562 -0.363281 0.601562 -0.527344 L 0.601562 -3.441406 C 0.601562 -3.574219 0.589844 -3.664062 0.566406 -3.714844 C 0.527344 -3.796875 0.445312 -3.839844 0.324219 -3.839844 C 0.296875 -3.839844 0.265625 -3.835938 0.234375 -3.832031 C 0.203125 -3.824219 0.160156 -3.816406 0.109375 -3.804688 L 0.109375 -3.902344 C 0.378906 -3.972656 0.703125 -4.070312 1.078125 -4.1875 C 1.09375 -4.1875 1.101562 -4.183594 1.105469 -4.171875 C 1.109375 -4.160156 1.109375 -4.132812 1.109375 -4.09375 L 1.109375 -0.515625 C 1.109375 -0.34375 1.140625 -0.230469 1.199219 -0.179688 C 1.257812 -0.128906 1.382812 -0.0976562 1.570312 -0.0820312 L 1.570312 0 L 0.125 0 Z "/>
</g>
<g id="glyph-1-5">
<path d="M 1.75 -1.652344 C 1.523438 -1.578125 1.332031 -1.492188 1.183594 -1.402344 C 0.898438 -1.226562 0.753906 -1.023438 0.753906 -0.800781 C 0.753906 -0.617188 0.816406 -0.484375 0.933594 -0.398438 C 1.011719 -0.34375 1.097656 -0.316406 1.195312 -0.316406 C 1.324219 -0.316406 1.449219 -0.351562 1.570312 -0.425781 C 1.691406 -0.5 1.75 -0.59375 1.75 -0.707031 Z M 0.222656 -0.59375 C 0.222656 -0.882812 0.367188 -1.121094 0.65625 -1.316406 C 0.839844 -1.433594 1.203125 -1.597656 1.75 -1.800781 L 1.75 -2.054688 C 1.75 -2.257812 1.730469 -2.398438 1.691406 -2.480469 C 1.625 -2.613281 1.484375 -2.679688 1.269531 -2.679688 C 1.167969 -2.679688 1.074219 -2.652344 0.980469 -2.601562 C 0.890625 -2.546875 0.84375 -2.472656 0.84375 -2.382812 C 0.84375 -2.359375 0.847656 -2.316406 0.859375 -2.261719 C 0.871094 -2.203125 0.875 -2.167969 0.875 -2.152344 C 0.875 -2.039062 0.835938 -1.960938 0.765625 -1.917969 C 0.722656 -1.890625 0.671875 -1.878906 0.613281 -1.878906 C 0.523438 -1.878906 0.457031 -1.910156 0.410156 -1.96875 C 0.363281 -2.027344 0.335938 -2.089844 0.335938 -2.164062 C 0.335938 -2.300781 0.421875 -2.449219 0.59375 -2.601562 C 0.765625 -2.753906 1.019531 -2.828125 1.351562 -2.828125 C 1.738281 -2.828125 2 -2.703125 2.136719 -2.453125 C 2.210938 -2.316406 2.246094 -2.117188 2.246094 -1.851562 L 2.246094 -0.65625 C 2.246094 -0.539062 2.253906 -0.460938 2.269531 -0.417969 C 2.296875 -0.339844 2.351562 -0.300781 2.429688 -0.300781 C 2.476562 -0.300781 2.515625 -0.308594 2.546875 -0.320312 C 2.574219 -0.335938 2.625 -0.371094 2.699219 -0.421875 L 2.699219 -0.269531 C 2.636719 -0.191406 2.566406 -0.128906 2.496094 -0.078125 C 2.382812 -0.00390625 2.269531 0.0351562 2.152344 0.0351562 C 2.019531 0.0351562 1.921875 -0.0078125 1.859375 -0.09375 C 1.800781 -0.183594 1.765625 -0.289062 1.761719 -0.410156 C 1.609375 -0.277344 1.480469 -0.179688 1.371094 -0.117188 C 1.191406 -0.0078125 1.019531 0.0429688 0.855469 0.0429688 C 0.683594 0.0429688 0.535156 -0.015625 0.410156 -0.136719 C 0.285156 -0.257812 0.222656 -0.410156 0.222656 -0.59375 Z "/>
</g>
<g id="glyph-1-6">
<path d="M 0.316406 -0.941406 L 0.414062 -0.941406 C 0.460938 -0.714844 0.523438 -0.539062 0.601562 -0.417969 C 0.738281 -0.195312 0.941406 -0.0820312 1.210938 -0.0820312 C 1.359375 -0.0820312 1.476562 -0.125 1.566406 -0.207031 C 1.652344 -0.289062 1.695312 -0.398438 1.695312 -0.527344 C 1.695312 -0.613281 1.667969 -0.691406 1.621094 -0.769531 C 1.570312 -0.847656 1.484375 -0.921875 1.359375 -0.996094 L 1.023438 -1.1875 C 0.777344 -1.320312 0.597656 -1.449219 0.484375 -1.585938 C 0.367188 -1.71875 0.308594 -1.875 0.308594 -2.054688 C 0.308594 -2.277344 0.390625 -2.460938 0.550781 -2.605469 C 0.707031 -2.75 0.90625 -2.820312 1.148438 -2.820312 C 1.253906 -2.820312 1.371094 -2.800781 1.496094 -2.761719 C 1.621094 -2.71875 1.695312 -2.699219 1.710938 -2.699219 C 1.746094 -2.699219 1.769531 -2.707031 1.789062 -2.714844 C 1.804688 -2.726562 1.816406 -2.742188 1.828125 -2.761719 L 1.902344 -2.761719 L 1.921875 -1.929688 L 1.828125 -1.929688 C 1.789062 -2.125 1.734375 -2.273438 1.667969 -2.382812 C 1.542969 -2.582031 1.367188 -2.679688 1.132812 -2.679688 C 0.996094 -2.679688 0.886719 -2.636719 0.804688 -2.550781 C 0.726562 -2.464844 0.6875 -2.363281 0.6875 -2.25 C 0.6875 -2.066406 0.824219 -1.902344 1.097656 -1.761719 L 1.492188 -1.546875 C 1.914062 -1.316406 2.128906 -1.050781 2.128906 -0.742188 C 2.128906 -0.507812 2.039062 -0.316406 1.863281 -0.167969 C 1.6875 -0.0195312 1.457031 0.0585938 1.171875 0.0585938 C 1.054688 0.0585938 0.917969 0.0351562 0.765625 -0.00390625 C 0.613281 -0.0429688 0.527344 -0.0625 0.5 -0.0625 C 0.476562 -0.0625 0.453125 -0.0546875 0.4375 -0.0390625 C 0.417969 -0.0195312 0.402344 0 0.394531 0.0234375 L 0.316406 0.0234375 Z "/>
</g>
<g id="glyph-1-7">
<path d="M 0.195312 -0.0820312 C 0.351562 -0.0898438 0.460938 -0.121094 0.523438 -0.171875 C 0.585938 -0.226562 0.613281 -0.359375 0.613281 -0.570312 L 0.613281 -2.546875 L 0.1875 -2.546875 L 0.1875 -2.726562 L 0.613281 -2.726562 C 0.617188 -3.160156 0.730469 -3.503906 0.949219 -3.761719 C 1.167969 -4.019531 1.503906 -4.148438 1.953125 -4.148438 C 2.144531 -4.148438 2.316406 -4.101562 2.476562 -4.015625 C 2.636719 -3.929688 2.714844 -3.824219 2.714844 -3.707031 C 2.714844 -3.644531 2.695312 -3.589844 2.652344 -3.546875 C 2.609375 -3.5 2.554688 -3.480469 2.488281 -3.480469 C 2.398438 -3.480469 2.289062 -3.5625 2.167969 -3.734375 C 2.046875 -3.902344 1.914062 -3.988281 1.773438 -3.988281 C 1.628906 -3.988281 1.511719 -3.964844 1.429688 -3.914062 C 1.347656 -3.867188 1.269531 -3.777344 1.195312 -3.644531 C 1.15625 -3.542969 1.128906 -3.441406 1.117188 -3.332031 C 1.105469 -3.222656 1.101562 -3.019531 1.101562 -2.726562 L 1.972656 -2.726562 C 2.046875 -2.726562 2.128906 -2.730469 2.222656 -2.734375 C 2.3125 -2.738281 2.390625 -2.742188 2.457031 -2.75 C 2.472656 -2.753906 2.519531 -2.761719 2.597656 -2.777344 C 2.675781 -2.792969 2.722656 -2.800781 2.738281 -2.800781 C 2.75 -2.800781 2.757812 -2.796875 2.769531 -2.789062 C 2.777344 -2.78125 2.785156 -2.765625 2.785156 -2.746094 C 2.785156 -2.726562 2.78125 -2.667969 2.773438 -2.570312 L 2.769531 -2.445312 C 2.765625 -2.402344 2.765625 -2.359375 2.765625 -2.316406 C 2.765625 -2.277344 2.761719 -2.234375 2.761719 -2.191406 L 2.761719 -0.59375 C 2.761719 -0.386719 2.792969 -0.253906 2.851562 -0.195312 C 2.910156 -0.140625 3.019531 -0.101562 3.179688 -0.0820312 L 3.179688 0 L 1.835938 0 L 1.835938 -0.0898438 C 2.027344 -0.109375 2.148438 -0.144531 2.191406 -0.195312 C 2.238281 -0.25 2.261719 -0.382812 2.261719 -0.59375 L 2.261719 -2.203125 C 2.261719 -2.34375 2.242188 -2.433594 2.199219 -2.472656 C 2.160156 -2.507812 2.070312 -2.53125 1.929688 -2.535156 C 1.832031 -2.539062 1.761719 -2.539062 1.710938 -2.542969 C 1.570312 -2.542969 1.367188 -2.546875 1.101562 -2.546875 L 1.101562 -0.535156 C 1.101562 -0.355469 1.144531 -0.234375 1.230469 -0.167969 C 1.285156 -0.125 1.386719 -0.0976562 1.539062 -0.0820312 L 1.539062 0 L 0.195312 0 Z "/>
</g>
<g id="glyph-1-8">
<path d="M 1.398438 -2.796875 C 1.679688 -2.796875 1.925781 -2.703125 2.136719 -2.507812 C 2.347656 -2.3125 2.453125 -2.039062 2.453125 -1.683594 L 0.558594 -1.683594 C 0.578125 -1.222656 0.683594 -0.886719 0.871094 -0.675781 C 1.058594 -0.464844 1.285156 -0.359375 1.542969 -0.359375 C 1.75 -0.359375 1.925781 -0.414062 2.070312 -0.523438 C 2.214844 -0.632812 2.347656 -0.785156 2.46875 -0.988281 L 2.570312 -0.953125 C 2.488281 -0.699219 2.335938 -0.464844 2.113281 -0.25 C 1.890625 -0.0351562 1.617188 0.0703125 1.292969 0.0703125 C 0.917969 0.0703125 0.628906 -0.0703125 0.425781 -0.351562 C 0.222656 -0.632812 0.121094 -0.960938 0.121094 -1.328125 C 0.121094 -1.726562 0.238281 -2.074219 0.472656 -2.363281 C 0.710938 -2.652344 1.019531 -2.796875 1.398438 -2.796875 Z M 1.226562 -2.582031 C 1 -2.582031 0.828125 -2.480469 0.707031 -2.28125 C 0.644531 -2.171875 0.597656 -2.035156 0.570312 -1.875 L 1.828125 -1.875 C 1.808594 -2.074219 1.769531 -2.222656 1.714844 -2.316406 C 1.617188 -2.492188 1.453125 -2.582031 1.226562 -2.582031 Z "/>
</g>
<g id="glyph-1-9">
<path d="M 0.121094 -0.0820312 C 0.332031 -0.09375 0.46875 -0.132812 0.535156 -0.203125 C 0.601562 -0.269531 0.636719 -0.414062 0.636719 -0.636719 L 0.636719 -2.550781 L 0.125 -2.550781 L 0.125 -2.75 L 0.636719 -2.75 C 0.636719 -3.066406 0.679688 -3.332031 0.765625 -3.546875 C 0.925781 -3.964844 1.226562 -4.171875 1.660156 -4.171875 C 1.835938 -4.171875 1.992188 -4.136719 2.132812 -4.066406 C 2.269531 -3.996094 2.339844 -3.902344 2.339844 -3.785156 C 2.339844 -3.71875 2.316406 -3.660156 2.265625 -3.609375 C 2.21875 -3.558594 2.160156 -3.53125 2.09375 -3.53125 C 2.035156 -3.53125 1.988281 -3.550781 1.945312 -3.585938 C 1.902344 -3.621094 1.855469 -3.679688 1.796875 -3.769531 L 1.746094 -3.847656 C 1.71875 -3.886719 1.683594 -3.921875 1.648438 -3.953125 C 1.609375 -3.980469 1.554688 -3.996094 1.488281 -3.996094 C 1.335938 -3.996094 1.234375 -3.921875 1.179688 -3.769531 C 1.152344 -3.691406 1.136719 -3.585938 1.136719 -3.457031 L 1.136719 -2.75 L 1.886719 -2.75 L 1.886719 -2.550781 L 1.144531 -2.550781 L 1.144531 -0.636719 C 1.144531 -0.410156 1.171875 -0.265625 1.234375 -0.203125 C 1.292969 -0.140625 1.453125 -0.101562 1.710938 -0.0820312 L 1.710938 0 L 0.121094 0 Z "/>
</g>
<g id="glyph-1-10">
<path d="M 0 0.765625 L 0 0.460938 L 3.050781 0.460938 L 3.050781 0.765625 Z "/>
</g>
<g id="glyph-1-11">
<path d="M 0.0273438 -0.0976562 C 0.210938 -0.113281 0.332031 -0.148438 0.390625 -0.195312 C 0.449219 -0.242188 0.480469 -0.347656 0.480469 -0.507812 L 0.480469 -1.851562 C 0.480469 -2.050781 0.460938 -2.191406 0.425781 -2.273438 C 0.386719 -2.359375 0.320312 -2.402344 0.222656 -2.402344 C 0.203125 -2.402344 0.175781 -2.398438 0.144531 -2.394531 C 0.113281 -2.390625 0.078125 -2.382812 0.0429688 -2.375 L 0.0429688 -2.472656 C 0.15625 -2.511719 0.273438 -2.554688 0.390625 -2.597656 C 0.511719 -2.636719 0.59375 -2.667969 0.636719 -2.683594 C 0.738281 -2.722656 0.839844 -2.765625 0.945312 -2.8125 C 0.960938 -2.8125 0.96875 -2.808594 0.972656 -2.796875 C 0.976562 -2.789062 0.976562 -2.769531 0.976562 -2.734375 L 0.976562 -2.246094 C 1.101562 -2.421875 1.226562 -2.5625 1.34375 -2.660156 C 1.460938 -2.761719 1.585938 -2.808594 1.710938 -2.808594 C 1.8125 -2.808594 1.898438 -2.78125 1.960938 -2.71875 C 2.023438 -2.660156 2.054688 -2.582031 2.054688 -2.492188 C 2.054688 -2.410156 2.03125 -2.339844 1.984375 -2.285156 C 1.933594 -2.230469 1.871094 -2.203125 1.800781 -2.203125 C 1.722656 -2.203125 1.648438 -2.238281 1.570312 -2.304688 C 1.492188 -2.375 1.433594 -2.410156 1.390625 -2.410156 C 1.320312 -2.410156 1.234375 -2.355469 1.132812 -2.242188 C 1.03125 -2.128906 0.980469 -2.015625 0.980469 -1.894531 L 0.980469 -0.550781 C 0.980469 -0.378906 1.019531 -0.257812 1.101562 -0.191406 C 1.179688 -0.125 1.3125 -0.09375 1.496094 -0.0976562 L 1.496094 0 L 0.0273438 0 Z "/>
</g>
<g id="glyph-1-12">
<path d="M 0.15625 -1.382812 C 0.15625 -1.78125 0.28125 -2.113281 0.53125 -2.386719 C 0.785156 -2.660156 1.109375 -2.796875 1.503906 -2.796875 C 1.898438 -2.796875 2.222656 -2.667969 2.480469 -2.410156 C 2.742188 -2.152344 2.871094 -1.808594 2.871094 -1.378906 C 2.871094 -0.984375 2.746094 -0.636719 2.496094 -0.347656 C 2.246094 -0.0546875 1.917969 0.09375 1.523438 0.09375 C 1.140625 0.09375 0.816406 -0.046875 0.550781 -0.328125 C 0.285156 -0.609375 0.15625 -0.960938 0.15625 -1.382812 Z M 1.421875 -2.621094 C 1.261719 -2.621094 1.125 -2.566406 1.011719 -2.464844 C 0.8125 -2.285156 0.714844 -1.972656 0.714844 -1.527344 C 0.714844 -1.171875 0.792969 -0.84375 0.953125 -0.535156 C 1.113281 -0.230469 1.335938 -0.078125 1.621094 -0.078125 C 1.84375 -0.078125 2.015625 -0.179688 2.132812 -0.386719 C 2.253906 -0.589844 2.316406 -0.859375 2.316406 -1.191406 C 2.316406 -1.535156 2.238281 -1.859375 2.085938 -2.164062 C 1.933594 -2.46875 1.710938 -2.621094 1.421875 -2.621094 Z "/>
</g>
<g id="glyph-1-13">
<path d="M 1.3125 -2.773438 L 1.3125 -2.679688 C 1.210938 -2.667969 1.136719 -2.652344 1.09375 -2.632812 C 1.050781 -2.613281 1.03125 -2.566406 1.03125 -2.5 C 1.03125 -2.46875 1.035156 -2.4375 1.042969 -2.410156 C 1.050781 -2.378906 1.066406 -2.339844 1.089844 -2.28125 L 1.710938 -0.738281 L 2.246094 -2.105469 C 2.273438 -2.171875 2.296875 -2.242188 2.320312 -2.3125 C 2.34375 -2.382812 2.355469 -2.4375 2.355469 -2.476562 C 2.355469 -2.554688 2.316406 -2.609375 2.242188 -2.644531 C 2.199219 -2.660156 2.140625 -2.671875 2.066406 -2.679688 L 2.066406 -2.773438 L 2.910156 -2.773438 L 2.910156 -2.679688 C 2.8125 -2.671875 2.746094 -2.640625 2.703125 -2.582031 C 2.660156 -2.527344 2.597656 -2.394531 2.515625 -2.191406 L 1.652344 -0.0429688 C 1.636719 -0.00390625 1.625 0.0234375 1.613281 0.0351562 C 1.605469 0.0507812 1.589844 0.0585938 1.574219 0.0585938 C 1.554688 0.0585938 1.535156 0.046875 1.523438 0.0234375 C 1.507812 0 1.492188 -0.0273438 1.476562 -0.0625 L 0.5625 -2.246094 C 0.488281 -2.421875 0.410156 -2.542969 0.328125 -2.609375 C 0.277344 -2.644531 0.207031 -2.667969 0.109375 -2.679688 L 0.109375 -2.773438 Z "/>
</g>
</g>
<image id="source-639" x="0" y="0" width="0" height="0"/>
<mask id="mask-0">
<use xlink:href="#source-639"/>
</mask>
<image id="source-635" x="0" y="0" width="0" height="0"/>
<mask id="mask-1">
<use xlink:href="#source-635"/>
</mask>
</defs>
<g fill="rgb(86.666667%, 86.666667%, 86.666667%)" fill-opacity="1">
<use xlink:href="#glyph-0-0" x="30" y="26.476562"/>
<use xlink:href="#glyph-0-1" x="36" y="26.476562"/>
</g>
<g fill="rgb(86.666667%, 86.666667%, 86.666667%)" fill-opacity="1">
<use xlink:href="#glyph-1-0" x="42" y="26.182617"/>
<use xlink:href="#glyph-1-1" x="44" y="26.182617"/>
<use xlink:href="#glyph-1-0" x="46" y="26.182617"/>
</g>
<g fill="rgb(86.666667%, 86.666667%, 86.666667%)" fill-opacity="1">
<use xlink:href="#glyph-0-2" x="48" y="26.476562"/>
<use xlink:href="#glyph-0-3" x="54" y="26.476562"/>
<use xlink:href="#glyph-0-4" x="60" y="26.476562"/>
<use xlink:href="#glyph-0-5" x="62" y="26.476562"/>
<use xlink:href="#glyph-0-6" x="68" y="26.476562"/>
<use xlink:href="#glyph-0-7" x="74" y="26.476562"/>
</g>
<g fill="rgb(86.666667%, 86.666667%, 86.666667%)" fill-opacity="1">
<use xlink:href="#glyph-1-0" x="80" y="26.182617"/>
<use xlink:href="#glyph-1-2" x="82" y="26.182617"/>
<use xlink:href="#glyph-1-2" x="88" y="26.182617"/>
<use xlink:href="#glyph-1-0" x="94" y="26.182617"/>
</g>
<g fill="rgb(86.666667%, 86.666667%, 86.666667%)" fill-opacity="1">
<use xlink:href="#glyph-0-8" x="96" y="26.476562"/>
<use xlink:href="#glyph-0-9" x="102" y="26.476562"/>
<use xlink:href="#glyph-0-10" x="108" y="26.476562"/>
<use xlink:href="#glyph-0-11" x="114" y="26.476562"/>
<use xlink:href="#glyph-0-12" x="120" y="26.476562"/>
<use xlink:href="#glyph-0-13" x="126" y="26.476562"/>
<use xlink:href="#glyph-0-14" x="132" y="26.476562"/>
<use xlink:href="#glyph-0-15" x="138" y="26.476562"/>
<use xlink:href="#glyph-0-16" x="144" y="26.476562"/>
<use xlink:href="#glyph-0-4" x="150" y="26.476562"/>
</g>
<g fill="rgb(86.666667%, 86.666667%, 86.666667%)" fill-opacity="1">
<use xlink:href="#glyph-0-17" x="30" y="32.433594"/>
</g>
<g fill="rgb(86.666667%, 86.666667%, 86.666667%)" fill-opacity="1">
<use xlink:href="#glyph-1-3" x="36" y="32.433594"/>
<use xlink:href="#glyph-1-4" x="39" y="32.433594"/>
<use xlink:href="#glyph-1-5" x="41" y="32.433594"/>
<use xlink:href="#glyph-1-6" x="44" y="32.433594"/>
<use xlink:href="#glyph-1-6" x="46" y="32.433594"/>
<use xlink:href="#glyph-1-7" x="48" y="32.433594"/>
<use xlink:href="#glyph-1-4" x="51" y="32.433594"/>
<use xlink:href="#glyph-1-8" x="53" y="32.433594"/>
<use xlink:href="#glyph-1-1" x="56" y="32.433594"/>
<use xlink:href="#glyph-1-3" x="58" y="32.433594"/>
<use xlink:href="#glyph-1-0" x="61" y="32.433594"/>
</g>
<g fill="rgb(86.666667%, 86.666667%, 86.666667%)" fill-opacity="1">
<use xlink:href="#glyph-0-18" x="63" y="32.433594"/>
<use xlink:href="#glyph-0-4" x="69" y="32.433594"/>
</g>
<g fill="rgb(86.666667%, 86.666667%, 86.666667%)" fill-opacity="1">
<use xlink:href="#glyph-1-3" x="71" y="32.433594"/>
<use xlink:href="#glyph-1-9" x="74" y="32.433594"/>
<use xlink:href="#glyph-1-10" x="76" y="32.433594"/>
<use xlink:href="#glyph-1-11" x="79" y="32.433594"/>
<use xlink:href="#glyph-1-8" x="81" y="32.433594"/>
<use xlink:href="#glyph-1-6" x="84" y="32.433594"/>
<use xlink:href="#glyph-1-12" x="86" y="32.433594"/>
<use xlink:href="#glyph-1-4" x="89" y="32.433594"/>
<use xlink:href="#glyph-1-13" x="91" y="32.433594"/>
<use xlink:href="#glyph-1-8" x="94" y="32.433594"/>
<use xlink:href="#glyph-1-10" x="97" y="32.433594"/>
<use xlink:href="#glyph-1-11" x="100" y="32.433594"/>
<use xlink:href="#glyph-1-8" x="102" y="32.433594"/>
<use xlink:href="#glyph-1-9" x="105" y="32.433594"/>
</g>
<g fill="rgb(86.666667%, 86.666667%, 86.666667%)" fill-opacity="1">
<use xlink:href="#glyph-0-19" x="107" y="32.433594"/>
</g>
</svg>
