<?xml version="1.0" encoding="UTF-8"?>
<svg xmlns="http://www.w3.org/2000/svg" xmlns:xlink="http://www.w3.org/1999/xlink" width="854" height="480" viewBox="0 0 854 480">
<defs>
<g>
<g id="glyph-0-0">
<path d="M 2.171875 -5.34375 C 2.734375 -5.34375 3.160156 -5.113281 3.449219 -4.65625 C 3.734375 -4.195312 3.878906 -3.519531 3.878906 -2.621094 C 3.878906 -1.722656 3.734375 -1.042969 3.449219 -0.585938 C 3.160156 -0.128906 2.734375 0.101562 2.171875 0.101562 C 1.609375 0.101562 1.1875 -0.128906 0.898438 -0.585938 C 0.613281 -1.042969 0.46875 -1.722656 0.46875 -2.621094 C 0.46875 -3.519531 0.613281 -4.195312 0.898438 -4.65625 C 1.1875 -5.113281 1.609375 -5.34375 2.171875 -5.34375 Z M 2.171875 -0.460938 C 2.507812 -0.460938 2.753906 -0.640625 2.917969 -0.996094 C 3.082031 -1.351562 3.164062 -1.890625 3.164062 -2.621094 C 3.164062 -3.007812 3.140625 -3.359375 3.09375 -3.671875 L 1.414062 -1.042969 C 1.589844 -0.65625 1.84375 -0.460938 2.171875 -0.460938 Z M 2.171875 -4.777344 C 1.839844 -4.777344 1.59375 -4.601562 1.429688 -4.246094 C 1.265625 -3.890625 1.183594 -3.347656 1.183594 -2.621094 C 1.183594 -2.289062 1.207031 -1.976562 1.253906 -1.6875 L 2.894531 -4.308594 C 2.714844 -4.621094 2.476562 -4.777344 2.171875 -4.777344 Z "/>
</g>
<g id="glyph-0-1">
<path d="M 1.511719 -3.945312 L 2.613281 -3.945312 L 2.613281 -2.671875 L 1.511719 -2.671875 Z M 1.511719 -1.285156 L 2.613281 -1.285156 L 2.613281 0 L 1.511719 0 Z "/>
</g>
<g id="glyph-0-2">
<rect x="0" y="0" width="0" height="0" mask="url(#mask-0)"/>
</g>
<g id="glyph-0-3">
<path d="M 1.113281 -3.9375 L 2.777344 -3.9375 L 2.777344 -0.503906 L 4.0625 -0.503906 L 4.0625 0 L 0.839844 0 L 0.839844 -0.503906 L 2.125 -0.503906 L 2.125 -3.429688 L 1.113281 -3.429688 Z M 2.125 -5.46875 L 2.777344 -5.46875 L 2.777344 -4.652344 L 2.125 -4.652344 Z "/>
</g>
<g id="glyph-0-4">
<path d="M 2.535156 -1.429688 C 2.535156 -1.136719 2.589844 -0.917969 2.695312 -0.769531 C 2.804688 -0.621094 2.960938 -0.546875 3.171875 -0.546875 L 3.929688 -0.546875 L 3.929688 0 L 3.105469 0 C 2.71875 0 2.417969 -0.125 2.207031 -0.371094 C 1.992188 -0.621094 1.886719 -0.972656 1.886719 -1.429688 L 1.886719 -5 L 0.847656 -5 L 0.847656 -5.507812 L 2.535156 -5.507812 Z "/>
</g>
<g id="glyph-0-5">
<path d="M 2.171875 -3.496094 C 1.84375 -3.496094 1.59375 -3.367188 1.425781 -3.109375 C 1.253906 -2.855469 1.171875 -2.472656 1.171875 -1.972656 C 1.171875 -1.472656 1.253906 -1.089844 1.425781 -0.835938 C 1.59375 -0.578125 1.84375 -0.449219 2.171875 -0.449219 C 2.503906 -0.449219 2.753906 -0.578125 2.921875 -0.835938 C 3.09375 -1.09375 3.175781 -1.46875 3.175781 -1.972656 C 3.175781 -2.476562 3.09375 -2.855469 2.921875 -3.109375 C 2.753906 -3.367188 2.503906 -3.496094 2.171875 -3.496094 Z M 2.171875 -4.046875 C 2.71875 -4.046875 3.140625 -3.867188 3.429688 -3.511719 C 3.71875 -3.15625 3.867188 -2.644531 3.867188 -1.972656 C 3.867188 -1.296875 3.71875 -0.78125 3.429688 -0.429688 C 3.140625 -0.0742188 2.722656 0.101562 2.171875 0.101562 C 1.625 0.101562 1.207031 -0.0742188 0.917969 -0.429688 C 0.628906 -0.78125 0.484375 -1.296875 0.484375 -1.972656 C 0.484375 -2.644531 0.628906 -3.15625 0.917969 -3.511719 C 1.207031 -3.867188 1.625 -4.046875 2.171875 -4.046875 Z "/>
</g>
<g id="glyph-0-6">
<path d="M 2.476562 -1.984375 L 2.261719 -1.984375 C 1.882812 -1.984375 1.597656 -1.917969 1.40625 -1.785156 C 1.214844 -1.652344 1.117188 -1.457031 1.117188 -1.191406 C 1.117188 -0.953125 1.191406 -0.769531 1.332031 -0.636719 C 1.476562 -0.507812 1.675781 -0.441406 1.929688 -0.441406 C 2.285156 -0.441406 2.566406 -0.566406 2.773438 -0.8125 C 2.976562 -1.0625 3.078125 -1.402344 3.082031 -1.839844 L 3.082031 -1.984375 Z M 3.734375 -2.253906 L 3.734375 0 L 3.082031 0 L 3.082031 -0.585938 C 2.945312 -0.351562 2.769531 -0.175781 2.558594 -0.0664062 C 2.347656 0.046875 2.09375 0.101562 1.792969 0.101562 C 1.390625 0.101562 1.070312 -0.0117188 0.828125 -0.238281 C 0.589844 -0.464844 0.46875 -0.769531 0.46875 -1.148438 C 0.46875 -1.589844 0.617188 -1.921875 0.910156 -2.152344 C 1.207031 -2.378906 1.640625 -2.492188 2.210938 -2.492188 L 3.082031 -2.492188 L 3.082031 -2.59375 C 3.078125 -2.910156 3 -3.140625 2.84375 -3.28125 C 2.683594 -3.421875 2.433594 -3.496094 2.085938 -3.496094 C 1.867188 -3.496094 1.644531 -3.464844 1.417969 -3.398438 C 1.191406 -3.335938 0.972656 -3.242188 0.757812 -3.121094 L 0.757812 -3.769531 C 0.996094 -3.863281 1.226562 -3.929688 1.449219 -3.976562 C 1.667969 -4.023438 1.882812 -4.046875 2.085938 -4.046875 C 2.414062 -4.046875 2.695312 -3.996094 2.925781 -3.902344 C 3.15625 -3.804688 3.34375 -3.660156 3.488281 -3.464844 C 3.578125 -3.347656 3.640625 -3.203125 3.679688 -3.03125 C 3.714844 -2.859375 3.734375 -2.597656 3.734375 -2.253906 Z "/>
</g>
<g id="glyph-0-7">
<path d="M 3.027344 -3.445312 L 3.027344 -5.488281 L 3.675781 -5.488281 L 3.675781 0 L 3.027344 0 L 3.027344 -0.496094 C 2.917969 -0.300781 2.773438 -0.152344 2.59375 -0.0507812 C 2.414062 0.0507812 2.207031 0.101562 1.972656 0.101562 C 1.496094 0.101562 1.117188 -0.0820312 0.84375 -0.453125 C 0.570312 -0.824219 0.433594 -1.335938 0.433594 -1.984375 C 0.433594 -2.628906 0.570312 -3.132812 0.847656 -3.496094 C 1.121094 -3.863281 1.496094 -4.046875 1.972656 -4.046875 C 2.210938 -4.046875 2.417969 -3.992188 2.597656 -3.890625 C 2.78125 -3.789062 2.921875 -3.640625 3.027344 -3.445312 Z M 1.117188 -1.972656 C 1.117188 -1.46875 1.199219 -1.089844 1.359375 -0.832031 C 1.519531 -0.574219 1.753906 -0.449219 2.066406 -0.449219 C 2.378906 -0.449219 2.617188 -0.578125 2.78125 -0.835938 C 2.945312 -1.09375 3.027344 -1.472656 3.027344 -1.972656 C 3.027344 -2.472656 2.945312 -2.851562 2.78125 -3.109375 C 2.617188 -3.367188 2.378906 -3.496094 2.066406 -3.496094 C 1.753906 -3.496094 1.519531 -3.367188 1.359375 -3.109375 C 1.199219 -2.855469 1.117188 -2.472656 1.117188 -1.972656 Z "/>
</g>
<g id="glyph-0-8">
<path d="M 4.316406 0.671875 L 4.316406 1.269531 L 0 1.269531 L 0 0.671875 Z "/>
</g>
</g>
<image id="source-84" x="0" y="0" width="0" height="0"/>
<mask id="mask-0">
<use xlink:href="#source-84"/>
</mask>
</defs>
<g fill="rgb(38.039216%, 68.627451%, 93.72549%)" fill-opacity="1">
<use xlink:href="#glyph-0-0" x="30" y="26.704102"/>
<use xlink:href="#glyph-0-1" x="34" y="26.704102"/>
<use xlink:href="#glyph-0-2" x="38" y="26.704102"/>
<use xlink:href="#glyph-0-3" x="42" y="26.704102"/>
<use xlink:href="#glyph-0-4" x="46" y="26.704102"/>
<use xlink:href="#glyph-0-5" x="50" y="26.704102"/>
<use xlink:href="#glyph-0-6" x="54" y="26.704102"/>
<use xlink:href="#glyph-0-7" x="58" y="26.704102"/>
<use xlink:href="#glyph-0-8" x="62" y="26.704102"/>
<use xlink:href="#glyph-0-0" x="66" y="26.704102"/>
</g>
</svg>
