<?xml version="1.0" encoding="UTF-8"?>
<svg xmlns="http://www.w3.org/2000/svg" xmlns:xlink="http://www.w3.org/1999/xlink" width="854" height="480" viewBox="0 0 854 480">
<defs>
<g>
<g id="glyph-0-0">
<path d="M 1.417969 -0.644531 L 4.023438 -0.644531 L 4.023438 0 L 0.578125 0 L 0.578125 -0.644531 C 1.050781 -1.144531 1.464844 -1.585938 1.820312 -1.96875 C 2.175781 -2.351562 2.417969 -2.617188 2.550781 -2.777344 C 2.804688 -3.085938 2.976562 -3.335938 3.066406 -3.527344 C 3.152344 -3.71875 3.199219 -3.914062 3.199219 -4.113281 C 3.199219 -4.429688 3.105469 -4.675781 2.917969 -4.855469 C 2.730469 -5.035156 2.476562 -5.125 2.152344 -5.125 C 1.921875 -5.125 1.679688 -5.085938 1.429688 -5 C 1.175781 -4.917969 0.90625 -4.792969 0.621094 -4.621094 L 0.621094 -5.394531 C 0.882812 -5.519531 1.140625 -5.613281 1.390625 -5.675781 C 1.644531 -5.738281 1.890625 -5.773438 2.136719 -5.773438 C 2.691406 -5.773438 3.136719 -5.625 3.476562 -5.328125 C 3.816406 -5.035156 3.984375 -4.648438 3.984375 -4.167969 C 3.984375 -3.925781 3.925781 -3.683594 3.816406 -3.441406 C 3.703125 -3.199219 3.519531 -2.929688 3.265625 -2.636719 C 3.125 -2.472656 2.917969 -2.242188 2.648438 -1.953125 C 2.378906 -1.660156 1.96875 -1.226562 1.417969 -0.644531 Z "/>
</g>
<g id="glyph-0-1">
<rect x="0" y="0" width="0" height="0" mask="url(#mask-0)"/>
</g>
<g id="glyph-0-2">
<path d="M 2.734375 -4.472656 L 2.734375 -2.792969 L 4.425781 -2.792969 L 4.425781 -2.148438 L 2.734375 -2.148438 L 2.734375 -0.46875 L 2.097656 -0.46875 L 2.097656 -2.148438 L 0.410156 -2.148438 L 0.410156 -2.792969 L 2.097656 -2.792969 L 2.097656 -4.472656 Z "/>
</g>
<g id="glyph-0-3">
<path d="M 2.945312 -3.035156 C 3.320312 -2.9375 3.605469 -2.761719 3.800781 -2.507812 C 4 -2.257812 4.097656 -1.941406 4.097656 -1.566406 C 4.097656 -1.042969 3.921875 -0.632812 3.570312 -0.335938 C 3.21875 -0.0390625 2.734375 0.109375 2.113281 0.109375 C 1.855469 0.109375 1.589844 0.0859375 1.316406 0.0390625 C 1.046875 -0.0078125 0.78125 -0.078125 0.519531 -0.171875 L 0.519531 -0.933594 C 0.777344 -0.800781 1.03125 -0.699219 1.285156 -0.632812 C 1.535156 -0.566406 1.785156 -0.535156 2.03125 -0.535156 C 2.453125 -0.535156 2.773438 -0.628906 3 -0.820312 C 3.226562 -1.011719 3.339844 -1.285156 3.339844 -1.640625 C 3.339844 -1.96875 3.226562 -2.230469 3 -2.425781 C 2.773438 -2.617188 2.46875 -2.714844 2.085938 -2.714844 L 1.5 -2.714844 L 1.5 -3.34375 L 2.085938 -3.34375 C 2.4375 -3.34375 2.710938 -3.421875 2.910156 -3.578125 C 3.105469 -3.730469 3.207031 -3.945312 3.207031 -4.222656 C 3.207031 -4.515625 3.113281 -4.738281 2.929688 -4.894531 C 2.746094 -5.050781 2.484375 -5.125 2.144531 -5.125 C 1.921875 -5.125 1.6875 -5.101562 1.445312 -5.050781 C 1.207031 -5 0.953125 -4.925781 0.691406 -4.824219 L 0.691406 -5.527344 C 0.996094 -5.609375 1.269531 -5.671875 1.507812 -5.710938 C 1.75 -5.75 1.960938 -5.773438 2.144531 -5.773438 C 2.695312 -5.773438 3.136719 -5.632812 3.46875 -5.355469 C 3.800781 -5.078125 3.964844 -4.710938 3.964844 -4.253906 C 3.964844 -3.941406 3.878906 -3.683594 3.703125 -3.476562 C 3.53125 -3.269531 3.277344 -3.121094 2.945312 -3.035156 Z "/>
</g>
</g>
<image id="source-1401" x="0" y="0" width="0" height="0"/>
<mask id="mask-0">
<use xlink:href="#source-1401"/>
</mask>
</defs>
<g fill="rgb(89.803922%, 75.294118%, 48.235294%)" fill-opacity="1">
<use xlink:href="#glyph-0-0" x="30" y="27.21875"/>
<use xlink:href="#glyph-0-1" x="35" y="27.21875"/>
<use xlink:href="#glyph-0-2" x="40" y="27.21875"/>
<use xlink:href="#glyph-0-1" x="45" y="27.21875"/>
<use xlink:href="#glyph-0-3" x="50" y="27.21875"/>
</g>
</svg>
